<?xml version="1.0" encoding="UTF-8"?><svg xmlns="http://www.w3.org/2000/svg" xmlns:xlink="http://www.w3.org/1999/xlink" viewBox="0 0 395 4"><defs><style>.cls-1{fill:#fff;}.cls-2{fill:#5cffb2;}.cls-3{isolation:isolate;}.cls-4{fill:#2d3b6d;}.cls-5{fill:#ffe900;}.cls-6{fill:#ff0030;}.cls-7{fill:url(#linear-gradient);}.cls-8{fill:#e3e3e2;mix-blend-mode:multiply;}</style><linearGradient id="linear-gradient" x1="69" y1="46" x2="355" y2="384" gradientTransform="translate(0 0)" gradientUnits="userSpaceOnUse"><stop offset="0" stop-color="#bef8f0"/><stop offset="0" stop-color="#aff1e3"/><stop offset="0" stop-color="#92e4ca"/><stop offset="0" stop-color="#7ddbb8"/><stop offset="0" stop-color="#71d5ad"/><stop offset="0" stop-color="#6dd4aa"/></linearGradient></defs><g class="cls-3"><g id="Capa_1"><g><path class="cls-7" d="M0,197C0,89,88,0,198,0c108,0,197,89,197,197,0,48-17,92-46,126l32,32-44,43-35-35c-31,19-67,31-105,31C88,395,0,307,0,197Zm248,113l-33-34,44-43,35,35c12-2,19-44,19-71,0-73-49-124-116-124-67,0-117,52-117,124,0,73,49,124,117,124,18,0,36-4,51-11Z"/><circle class="cls-4" cx="197" cy="198" r="102"/><circle class="cls-1" cx="197" cy="198" r="85"/><circle class="cls-1" cx="197" cy="198" r="68"/><circle class="cls-1" cx="197" cy="198" r="85"/><circle class="cls-6" cx="197" cy="198" r="68"/><circle class="cls-1" cx="197" cy="198" r="51"/><circle class="cls-2" cx="197" cy="198" r="34"/><circle class="cls-1" cx="197" cy="198" r="18"/><path class="cls-8" d="M204,19l-12,9,64,82c4-3,8-6,11-1l-64-81Z"/><g><path class="cls-5" d="M28,85c-2,0-3,0-5,2l-24,24c-1,1-2,3-2,5l2,17-57,57h0c-1,1-2,3-2,5,0,2,0,4,2,5,1,1,3,2,5,2,2,0,4,0,5-2l57-57,18,2c2,0,4,0,5-2l24-24h0c2-2,2-5,2-7,0-2-3-4-6-4h-15c0-1-1-16-1-16,0-3-3-6-7-6h0Z"/><path class="cls-1" d="M275,107v6c0,3,3,6,7,6h6c0,0-12,13-12,13h-12c0-1-1-13-1-13l12-12Z"/></g></g></g></g></svg>